HIERARCHY
ROOT Hips
{
	OFFSET -14.64140 90.27770 -84.91600
	CHANNELS 6 Xposition Yposition Zposition Zrotation Xrotation Yrotation
	JOINT Spine
	{
		OFFSET 0.00000 13.20850 -1.60436
		CHANNELS 3 Zrotation Xrotation Yrotation
		JOINT Spine1
		{
			OFFSET 0.00000 8.61716 0.00000
			CHANNELS 3 Zrotation Xrotation Yrotation
			JOINT Spine2
			{
				OFFSET 0.00000 8.61717 0.00000
				CHANNELS 3 Zrotation Xrotation Yrotation
				JOINT Spine3
				{
					OFFSET 0.00000 8.61717 0.00000
					CHANNELS 3 Zrotation Xrotation Yrotation
					JOINT Neck
					{
						OFFSET 0.00000 11.07920 1.10792
						CHANNELS 3 Zrotation Xrotation Yrotation
						JOINT Neck1
						{
							OFFSET 0.00000 7.08032 0.00000
							CHANNELS 3 Zrotation Xrotation Yrotation
							JOINT Head
							{
								OFFSET 0.00000 7.08031 0.00000
								CHANNELS 3 Zrotation Xrotation Yrotation
								End site
								{
									OFFSET 0.00000 0.00000 0.00000
								}
							}
						}
					}
					JOINT RightShoulder
					{
						OFFSET -0.01000 7.91373 5.19711
						CHANNELS 3 Zrotation Xrotation Yrotation
						JOINT RightArm
						{
							OFFSET -18.41580 0.00000 0.00000
							CHANNELS 3 Zrotation Xrotation Yrotation
							JOINT RightForeArm
							{
								OFFSET -29.11090 0.00000 0.00000
								CHANNELS 3 Zrotation Xrotation Yrotation
								JOINT RightHand
								{
									OFFSET -24.65040 0.00000 0.00000
									CHANNELS 3 Zrotation Xrotation Yrotation
									JOINT RightHandThumb1
									{
										OFFSET -5.35114 -0.85590 3.97906
										CHANNELS 3 Zrotation Xrotation Yrotation
										JOINT RightHandThumb2
										{
											OFFSET -4.52789 0.00000 0.00000
											CHANNELS 3 Zrotation Xrotation Yrotation
											JOINT RightHandThumb3
											{
												OFFSET -2.46976 0.00000 0.00000
												CHANNELS 3 Zrotation Xrotation Yrotation
												End site
												{
													OFFSET 0.00000 0.00000 0.00000
												}
											}
										}
									}
									JOINT RightHandIndex1
									{
										OFFSET -14.26970 0.00000 2.88139
										CHANNELS 3 Zrotation Xrotation Yrotation
										JOINT RightHandIndex2
										{
											OFFSET -5.48836 0.00000 0.00000
											CHANNELS 3 Zrotation Xrotation Yrotation
											JOINT RightHandIndex3
											{
												OFFSET -3.01859 0.00000 0.00000
												CHANNELS 3 Zrotation Xrotation Yrotation
												End site
												{
													OFFSET 0.00000 0.00000 0.00000
												}
											}
										}
									}
									JOINT RightHandMiddle1
									{
										OFFSET -14.26970 0.00000 -0.09147
										CHANNELS 3 Zrotation Xrotation Yrotation
										JOINT RightHandMiddle2
										{
											OFFSET -6.17441 0.00000 0.00000
											CHANNELS 3 Zrotation Xrotation Yrotation
											JOINT RightHandMiddle3
											{
												OFFSET -3.56743 0.00000 0.00000
												CHANNELS 3 Zrotation Xrotation Yrotation
												End site
												{
													OFFSET 0.00000 0.00000 0.00000
												}
											}
										}
									}
									JOINT RightHandRing1
									{
										OFFSET -12.69180 0.00000 -3.06433
										CHANNELS 3 Zrotation Xrotation Yrotation
										JOINT RightHandRing2
										{
											OFFSET -5.62556 0.00000 0.00000
											CHANNELS 3 Zrotation Xrotation Yrotation
											JOINT RightHandRing3
											{
												OFFSET -3.56744 0.00000 0.00000
												CHANNELS 3 Zrotation Xrotation Yrotation
												End site
												{
													OFFSET 0.00000 0.00000 0.00000
												}
											}
										}
									}
									JOINT RightHandPinky1
									{
										OFFSET -11.11390 0.00000 -6.03719
										CHANNELS 3 Zrotation Xrotation Yrotation
										JOINT RightHandPinky2
										{
											OFFSET -4.52789 0.00000 0.00000
											CHANNELS 3 Zrotation Xrotation Yrotation
											JOINT RightHandPinky3
											{
												OFFSET -2.46976 0.00000 0.00000
												CHANNELS 3 Zrotation Xrotation Yrotation
												End site
												{
													OFFSET 0.00000 0.00000 0.00000
												}
											}
										}
									}
								}
							}
						}
					}
					JOINT LeftShoulder
					{
						OFFSET 0.01000 7.91373 5.19711
						CHANNELS 3 Zrotation Xrotation Yrotation
						JOINT LeftArm
						{
							OFFSET 18.41580 0.00000 0.00000
							CHANNELS 3 Zrotation Xrotation Yrotation
							JOINT LeftForeArm
							{
								OFFSET 29.11090 0.00000 0.00000
								CHANNELS 3 Zrotation Xrotation Yrotation
								JOINT LeftHand
								{
									OFFSET 24.65040 0.00000 0.00000
									CHANNELS 3 Zrotation Xrotation Yrotation
									JOINT LeftHandThumb1
									{
										OFFSET 5.35114 -0.85590 3.97906
										CHANNELS 3 Zrotation Xrotation Yrotation
										JOINT LeftHandThumb2
										{
											OFFSET 4.52789 0.00000 0.00000
											CHANNELS 3 Zrotation Xrotation Yrotation
											JOINT LeftHandThumb3
											{
												OFFSET 2.46977 0.00000 0.00000
												CHANNELS 3 Zrotation Xrotation Yrotation
												End site
												{
													OFFSET 0.00000 0.00000 0.00000
												}
											}
										}
									}
									JOINT LeftHandIndex1
									{
										OFFSET 14.26970 0.00000 2.88139
										CHANNELS 3 Zrotation Xrotation Yrotation
										JOINT LeftHandIndex2
										{
											OFFSET 5.48836 0.00000 0.00000
											CHANNELS 3 Zrotation Xrotation Yrotation
											JOINT LeftHandIndex3
											{
												OFFSET 3.01859 0.00000 0.00000
												CHANNELS 3 Zrotation Xrotation Yrotation
												End site
												{
													OFFSET 0.00000 0.00000 0.00000
												}
											}
										}
									}
									JOINT LeftHandMiddle1
									{
										OFFSET 14.26970 0.00000 -0.09147
										CHANNELS 3 Zrotation Xrotation Yrotation
										JOINT LeftHandMiddle2
										{
											OFFSET 6.17440 0.00000 0.00000
											CHANNELS 3 Zrotation Xrotation Yrotation
											JOINT LeftHandMiddle3
											{
												OFFSET 3.56744 0.00000 0.00000
												CHANNELS 3 Zrotation Xrotation Yrotation
												End site
												{
													OFFSET 0.00000 0.00000 0.00000
												}
											}
										}
									}
									JOINT LeftHandRing1
									{
										OFFSET 12.69180 0.00000 -3.06433
										CHANNELS 3 Zrotation Xrotation Yrotation
										JOINT LeftHandRing2
										{
											OFFSET 5.62556 0.00000 0.00000
											CHANNELS 3 Zrotation Xrotation Yrotation
											JOINT LeftHandRing3
											{
												OFFSET 3.56744 0.00000 0.00000
												CHANNELS 3 Zrotation Xrotation Yrotation
												End site
												{
													OFFSET 0.00000 0.00000 0.00000
												}
											}
										}
									}
									JOINT LeftHandPinky1
									{
										OFFSET 11.11390 0.00000 -6.03719
										CHANNELS 3 Zrotation Xrotation Yrotation
										JOINT LeftHandPinky2
										{
											OFFSET 4.52789 0.00000 0.00000
											CHANNELS 3 Zrotation Xrotation Yrotation
											JOINT LeftHandPinky3
											{
												OFFSET 2.46976 0.00000 0.00000
												CHANNELS 3 Zrotation Xrotation Yrotation
												End site
												{
													OFFSET 0.00000 0.00000 0.00000
												}
											}
										}
									}
								}
							}
						}
					}
					JOINT pCube4
					{
						OFFSET 0.00000 10.91090 1.10792
						CHANNELS 3 Zrotation Xrotation Yrotation
						End site
						{
							OFFSET 0.00000 0.00000 0.00000
						}
					}
				}
			}
		}
	}
	JOINT RightUpLeg
	{
		OFFSET -9.98441 0.00000 0.00000
		CHANNELS 3 Zrotation Xrotation Yrotation
		JOINT RightLeg
		{
			OFFSET 0.00000 -42.11790 0.00000
			CHANNELS 3 Zrotation Xrotation Yrotation
			JOINT RightFoot
			{
				OFFSET 0.00000 -45.00020 -0.00001
				CHANNELS 3 Zrotation Xrotation Yrotation
				JOINT RightForeFoot
				{
					OFFSET 0.00000 -3.74820 0.00000
					CHANNELS 3 Zrotation Xrotation Yrotation
					JOINT RightToeBase
					{
						OFFSET 0.00000 0.06325 14.43120
						CHANNELS 3 Zrotation Xrotation Yrotation
						End site
						{
							OFFSET 0.00000 0.00000 0.00000
						}
					}
				}
			}
		}
	}
	JOINT LeftUpLeg
	{
		OFFSET 9.98441 0.00000 0.00000
		CHANNELS 3 Zrotation Xrotation Yrotation
		JOINT LeftLeg
		{
			OFFSET 0.00000 -42.11800 0.00000
			CHANNELS 3 Zrotation Xrotation Yrotation
			JOINT LeftFoot
			{
				OFFSET 0.00000 -45.00070 0.00000
				CHANNELS 3 Zrotation Xrotation Yrotation
				JOINT LeftForeFoot
				{
					OFFSET 0.00000 -3.74824 0.00000
					CHANNELS 3 Zrotation Xrotation Yrotation
					JOINT LeftToeBase
					{
						OFFSET 0.00000 0.06325 14.43110
						CHANNELS 3 Zrotation Xrotation Yrotation
						End site
						{
							OFFSET 0.00000 0.00000 0.00000
						}
					}
				}
			}
		}
	}
}
MOTION
Frames: 4
Frame Time: 0.050000
-0.00724792753655275 -0.008027933018593182 -0.003708073880692716 -0.028152439389432394 -0.01577349305747479 -0.030401187552536808 -2.9991310342435997 0.5839564442750694 -0.7059654250282382 -0.958576662665084 3.729065908106511 0.3727101967435925 -1.3611022135037414 -2.1437532683225977 0.07495633486464633 0.08339698855679334 0.31448151595612506 -0.6654120706325417 0.8181273506698882 14.060094509813469 -1.5828744942436206 0.19822651862789722 0.3711954594183383 -6.363837836077413 0.8768834996133498 -14.57338000436747 -0.5230463718123999 -7.392745185368088 2.4626562073104097 -13.247674004046917 75.13699796303814 10.54476266412788 31.579863215785263 26.82917404821495 5.701064677243503 76.79340473774649 18.074198665979065 -0.29628437625226467 -1.522276658548011 4.5217240170537805 -0.0794044600220365 -1.5896599769770376 -0.014610542272108083 -0.005405180594269143 -56.27119612054263 0.02707535804771655 -0.01006020151804407 -56.26965276942352 -38.75662262903589 0.022263572244556145 -0.005641381546712548 0.026720719520285943 0.01957721875740582 0.006418044109892511 0.019182211026259503 -0.009068669478273119 0.011599966915753187 -36.68305681137547 0.036275274599849555 0.04111662089650546 0.014615600916285047 0.010110714392752247 0.026287611746366644 -0.011515894575778538 -0.04330534069302684 0.001077994804710823 -19.713352468992372 0.04039860766332025 -0.021321314920914956 0.008707488478408293 0.016394882001737544 0.01685743758047277 -0.02016332088901669 -0.03870531761102196 0.04245006573002645 24.039104560665173 0.02018610743083397 0.010100367105353997 28.8784043139486 0.028987779954168447 -0.026687212216068696 28.83668343717426 0.029468681647026956 -0.01876890457166824 5.839296093895885 1.3744015836666172 12.025518458081606 -67.75757933034218 24.780421605345143 -12.604371871846054 -15.188452279243105 -1.1439306452373446 -69.7225662531982 -8.880265278085334 3.909256727891014 -1.7518023799868632 -0.45512009400822456 0.017780923870218027 -8.135424113980601 0.002353135093315347 0.02932011196527703 44.54026768350932 -0.037284394848623274 0.038480174968824825 44.60950170919992 12.493125091479802 -0.012098171840273267 0.01719847269498825 -0.02041566838094146 0.00850308219265025 -0.0072835223296580445 0.025972581102929382 -0.03135417220532767 -0.019596590959759415 11.148508453322417 0.0261343707096144 0.014855084279120793 -0.04335509300335136 0.023581793187031515 -0.00819492685599245 -0.01776470709265066 -0.04325697754144389 0.03825296258025285 4.790400523504246 0.02346832557760533 -0.002905748956423228 0.007142991790341735 0.03800143884658254 -0.04153310708113302 0.003365599802860765 0.01010709763495779 0.04245764524459459 -5.5804876793657865 -0.01631526577626747 0.01733301306903374 -6.753354502604076 0.0294481158982693 0.030740884633640195 -6.72769555756326 -0.014619745771961854 0.012961743770311665 -0.0018205285680312554 -0.006066400470533543 -0.0002878698276261634 8.028960702962046 3.5044393289252933 -19.233142161957296 -0.007387878185334168 10.359010645515 0.02959275529655408 -5.656780449258597 -15.674046690281273 3.187736061705396 -0.02108969277679137 0.00814106069984727 0.008299691859277111 -0.004437070849977605 4.707655671958026 0.0454389534120688 12.464045661963082 -8.27918045058341 6.851690557237749 0.021686241853533024 46.4191200237458 0.008652259631483656 -4.287251904352873 -14.757763652932098 -3.8163500922164135 0.014157654436298833 0.04176579295419856 -0.020072096529176263 0.01917556704825599 -10.715310312917467 0.0016267030427193265 
0.010458820126080619 -0.01946684180893943 0.031400717275369534 0.031184640538479615 0.027661942355220456 0.0022739177724294315 -2.911765497583828 0.42163251396631996 -0.6582466049809488 -0.9463998320116425 3.6936214286421487 0.3804422188931307 -1.381934865306625 -2.189425424035038 -0.009802195069063956 0.1010379090923404 0.23224346803293022 -0.7078483459892576 0.790995881212922 14.048098220578433 -1.8038434611133258 0.21700434677812064 0.36716732300218746 -6.897946246267136 0.979690073642401 -14.50781892952832 -0.5357137255687874 -7.420193710180796 2.3645322355495173 -13.200483848063445 74.52452989185643 9.263564508975806 31.306278542485604 32.243874775618025 5.851421435043971 78.74302402100749 19.003383082617542 -0.36456907165704056 -1.8356459846295896 4.479800490975846 -0.15237434681555093 -1.5648815879171125 -0.018941931398433823 -0.01582297915428307 -56.20413459741834 0.02653715696186804 -0.006317060942743134 -56.26646020355856 -38.73007658914524 -0.0057766360354900475 -0.039174393222672944 0.00516052002746901 0.02395663554356271 0.020489820264723155 0.04549578476745832 0.0051278667741757765 -0.03449174183588566 -36.70744656601392 0.012084039713769933 0.03896452738050891 0.04394203182789027 -0.0007832207284931697 -0.04553974728321859 0.004597995095271949 -0.02252819611180541 -0.03080710259537238 -19.721982537814945 -0.03358185129375026 -0.04041411139891538 -0.01897320396725552 0.022982576267819778 0.007208858929737814 -0.04695788902908587 -0.030725070387172444 0.04090504297882226 24.009213166479796 -0.036639934051054986 0.0020172669639789936 28.855533466313137 0.03876018654355045 0.04314725527907406 28.8911927597453 0.006908870376439573 0.04481781339501478 6.1080995055145175 1.4697763324761008 11.98487696103822 -67.4113531863949 23.02533688602701 -13.876877405889271 -20.93269396437431 2.464784385117284 -74.30680003669328 -9.33957933430995 3.8745465567007686 -2.013746694593407 -0.49909947153046674 0.11396385592558156 -8.112104898694456 -0.005042398130940837 0.026820773397818267 44.54556639582656 -0.001987373610243962 -0.016320998762873476 44.54263578838509 12.425180944142673 0.02315438426206169 0.03155245641081787 -0.02036204671402747 -0.00304544234914196 0.03600042772116788 0.04293436354487296 -0.010842261458915687 -0.04108581724291272 11.144937899828236 0.013613469525856646 -0.04179882443832224 -0.00032358661464239097 0.01509485827615358 -0.01237903346566039 0.04199777608701149 -0.03018330983882796 -0.011524304843091098 4.7392753792946145 0.040189817648565065 0.042111798622399096 -0.03319489999171418 0.0008917919961158229 0.00941726917119121 -0.013790646290236777 0.04879900007169293 -0.015752073958777292 -5.560148298879435 -0.04372886101386474 0.039849379213165496 -6.704963292973026 -0.04230421660364026 -0.0386371689760371 -6.745227899266469 -0.03219433281813652 0.01465672369778633 0.02822372975043562 0.0378602720035349 0.01680359051551176 8.044295795686104 3.5070466668178577 -19.22517364998896 0.0027112202661260672 10.390109835315496 -0.027571367437547827 -5.606315129418505 -15.640302857627269 3.2092113302008114 0.029885420352091654 -0.009194064061745813 -0.015204243444432554 0.03042991433404762 4.733934698791676 0.04154367941425714 12.462717269498434 -8.205323362749759 6.917421042028821 -0.012978582120490027 46.411945441330126 -0.014662621150065343 -4.299278982000146 -14.769586035267327 -3.852879292226735 0.0045378845133469 -0.00047853276950941907 0.0015496794110408127 -0.004009899951936122 -10.721148208606952 -0.002155248486134596 
-0.017995531332109703 -0.019587513928590924 -0.03612847754937642 0.008289350890925829 0.011295831245662302 -0.027687322739836803 -2.8258181521094503 0.2230163987809345 -0.7623531821223923 -0.8703121416763361 3.7144383278359006 0.3937040812924229 -1.383784499498889 -2.263483749525061 -0.13831150872998316 0.13866519121185522 0.15980493531261827 -0.7479506147233113 0.8074336005171098 14.090082173620592 -2.006120645844401 0.22903994772247593 0.391055398220743 -7.297979462186475 0.9611000289090927 -14.44335522920688 -0.6023845546148946 -7.555741636231681 2.435675586515725 -13.203980856826375 73.92440482143037 6.756438495696247 31.645964867864162 39.33731964442881 5.453382746194012 82.74144561512516 19.829315268669042 -0.31910183018897176 -1.9752119604622869 4.56813334636279 -0.1322322008771794 -1.5796440414350048 -0.044608241456378483 0.008922695687190322 -56.21898832474527 -0.03026851649142969 -0.0003873928763868391 -56.23962280823706 -38.79496026645865 0.00012498364725955103 -0.016870054477753436 0.035929889295371845 0.040447218780254604 0.03184978358205424 -0.010856604268925757 0.012633807471002184 -0.02288455403241324 -36.67379853010151 0.0493114012093442 0.04392274948969487 0.0039205454867008785 0.029807699312705868 -0.001905298715076298 -0.02602215502516441 0.013452178137474721 -0.037311494779154394 -19.75295414374201 0.03512519146425119 -0.0467188409534334 0.03795815966489296 0.00694251318076906 0.010863878470029627 0.03925455806605028 0.014114644536946887 -0.02071438849604702 24.023943326774486 0.025407798003627788 0.02884440410077346 28.90150467586517 0.0394954573439839 -0.022872774793292534 28.86332386459341 0.016595825441351464 0.0026797234446993188 6.425011986760839 1.5136169732126725 12.018629460297573 -67.26118916528856 21.144451363943055 -15.328685263206818 -29.1062427867802 6.110143223655447 -81.14205137666498 -9.966106139886362 3.9468356025393376 -2.4217028844993056 -0.4391957158997525 0.05546828303661228 -8.128065243872934 -0.03793537207574923 0.0014158806948642673 44.601054062949686 0.009255742910059433 -0.026607334449120508 44.57275298393256 12.46051537321895 0.011285650099768485 0.015591990297205172 0.03427273981048041 -0.01656283013886914 0.005768448067944824 -0.03433563488034814 0.04797564606607079 0.016690099006770587 11.098924725022988 -0.017276918307494143 0.02473618903254917 -0.0004967158830718119 -0.025280241084608093 -0.024801457844934816 0.0009016027448508884 0.04778630123000454 0.03535410749795091 4.76214476011214 -0.00037053193542983717 0.04545058499638776 -0.04038692057856398 0.0206476674687212 0.036233841338838786 0.03717867468417094 0.03734875771233557 -0.025867595037906265 -5.620473922701148 -0.020321318004040245 0.002913261450003128 -6.746003523746127 -0.02382712013867849 -0.026183387546116387 -6.719241057466204 0.023087156558084135 -0.024724531143746446 0.049898637118810825 -0.02878673480948555 0.04733714306061226 8.061479157953114 3.524259723659131 -19.217816442299807 0.04681458028141305 10.398265980012022 0.003496942867777745 -5.606848416032631 -15.65686237357186 3.1938960804750285 0.00877387942653496 0.017217324199540113 0.03994697221728452 -0.02763028926587067 4.701074036014032 -0.0007051389249003707 12.499239849104724 -8.247668117206366 6.857753161581503 0.03448957515019406 46.336099302248584 -0.0033541011033312307 -4.350993826698654 -14.790731028136 -3.808918205573566 -0.0344141840681814 -0.018581775784029694 -0.003685919687975036 -0.013653301367996439 -10.771715759816859 -0.02220067758812326 
0.016688378358497024 0.03840099340340209 -0.03661451547869547 -0.007306940224260279 0.035706356350591446 0.005845803649335826 -2.7139060136272284 0.03421631773688773 -0.7818987269120433 -0.8705822311447279 3.6733659396760503 0.3743823384622777 -1.3123658868293464 -2.334458699483513 -0.1888462986493533 0.20048487474170662 0.06821125059857043 -0.7203324469482343 0.7898929457050814 14.16153278208034 -2.1451042708275607 0.2291392100004765 0.45067421213852715 -7.344843570023593 0.9635300299260223 -14.420138543782063 -0.6112913054352161 -7.706928769483443 2.434069332370626 -13.313125562112893 73.09941963695086 3.325929370413745 32.44939428419034 46.48443308324001 4.349475521845584 87.31731206794815 20.272563949747525 -0.360005121411552 -2.170535162066548 4.559555342540689 -0.13621853254012048 -1.5692299146418525 0.0015874294171453448 0.02572005784227778 -56.191219840616775 0.00013688165775977443 -0.010233748843402755 -56.24626021387868 -38.78910878011387 -0.04962361440601482 0.01422457470030257 -0.013913124561318775 0.007777825615254464 0.012061838978513094 0.040768783051751745 -0.011210101317069676 0.03957486381180278 -36.67669292027665 -0.026610272046954292 -0.04965162960066293 0.026746870685497203 0.009283615387632994 0.035802864158083834 0.02961443805312647 0.04615727076880169 -0.04120067293548504 -19.743504935629154 -0.027897178328558633 -0.022340844783251823 -0.00838562085744994 0.0033349290070580013 -0.003671340835512544 0.015660047434937343 -0.0006510283176533309 0.03532848252931793 24.01139183303111 -0.014083687185596924 0.011287343517214372 28.823700953400206 -0.03465260777584101 0.04517030079444286 28.88225675293325 -0.00551221093555824 -0.04010982587107883 6.763416220418885 1.6072085041037614 11.96144846566681 -66.99335050722145 19.680597416704337 -16.409462103637978 -37.84051531259454 8.473181739230105 -88.5679585025709 -10.605725395967418 3.9174477034614226 -2.688241498276424 -0.5031350889593444 0.11053092036072804 -8.136267502727376 0.03187866526932631 -0.03437884990487084 44.56355294115165 -0.049227910365200175 -0.0069856886299412965 44.570691646173024 12.473234966412804 -0.019497503541459446 -0.035400481434522575 -0.012006863358199732 -0.029484225162630072 -0.04080992228248792 -0.004245585244007968 0.03322332212362317 0.04467505658723637 11.145362731159715 -0.0018816466422952008 -0.021840704671849665 0.04260916105523259 -0.03550495547939123 -0.04064293181948987 0.03671229571452812 -0.025948516602313895 -0.02698945262575734 4.79107933669858 -0.028210752384654057 0.043464665890425774 0.007875102559226585 -0.04639736878863568 -0.018723355557727927 0.037067761031517946 0.014541332311656665 0.04185457298700769 -5.618242340744445 0.04433731253784344 -0.04673214944950075 -6.753421962932245 0.004753465478545276 0.021873158433520206 -6.678073171208696 0.015444381013280379 -0.04675136750157198 0.029026939190920243 0.01659332812557425 0.00147671232618066 8.020236000979393 3.5389898104175073 -19.18639164195247 0.022223262097391942 10.379689698248653 0.061001486055312304 -5.631446372895479 -15.638210198205082 3.1578262616348893 -0.03807304849088431 -0.007803336570970933 0.02184804231302576 0.013782953842536612 4.705360191951046 -0.019119025394154904 12.450972064766445 -8.272490392633056 6.852060228458997 -0.042016567563136126 46.37116751040203 -0.0006956719704191694 -4.339764309853732 -14.780133393899726 -3.848568676353624 -0.03771052988126962 0.009895603295871993 0.00807024812520645 -0.03424179517580274 -10.745662512637866 -0.023850431917426116 
